<svg width="666" height="129" viewBox="0 0 666 129" fill="none" xmlns="http://www.w3.org/2000/svg">
<path d="M34.6207 4.93844H264.331C269.854 4.93844 273.63 9.36048 272.767 14.8153L257.057 114.002C256.193 119.457 251.015 123.879 245.493 123.879H15.7823C10.2595 123.879 6.48272 119.457 7.34668 114.002L23.0563 14.8153C23.9203 9.36047 29.0978 4.93844 34.6207 4.93844Z" stroke="#F16B46" stroke-width="10"/>
<path d="M41.4035 100.909L53.4773 28.1814H78.0512C83.733 28.1814 88.2311 29.1402 91.5455 31.0578C94.8836 32.9755 97.1445 35.6151 98.3282 38.9769C99.5356 42.3386 99.7841 46.1738 99.0739 50.4826C98.3637 54.7439 96.8485 58.5318 94.5285 61.8462C92.2321 65.1606 89.1071 67.7648 85.1535 69.6587C81.2235 71.5526 76.4413 72.4996 70.8069 72.4996H50.9205L52.341 64.5451H71.9432C75.8258 64.5451 79.0455 63.9769 81.6023 62.8405C84.1591 61.7041 86.1478 60.0825 87.5682 57.9755C88.9887 55.8684 89.9357 53.3708 90.4091 50.4826C90.8826 47.5469 90.7524 45.002 90.0185 42.8476C89.3083 40.6696 87.8523 38.9887 85.6506 37.805C83.4726 36.5976 80.4186 35.9939 76.4887 35.9939H61.0057L50.2103 100.909H41.4035ZM81.0341 68.2382L93.5341 100.909H83.3069L71.091 68.2382H81.0341ZM161.341 28.1814H170.148L162.194 76.3348C161.365 81.3064 159.459 85.7453 156.476 89.6516C153.493 93.5342 149.694 96.6 145.077 98.849C140.461 101.074 135.3 102.187 129.594 102.187C123.889 102.187 119.106 101.074 115.248 98.849C111.389 96.6 108.619 93.5342 106.938 89.6516C105.257 85.7453 104.831 81.3064 105.659 76.3348L113.614 28.1814H122.421L114.537 75.6246C113.969 79.1757 114.241 82.3362 115.354 85.1061C116.467 87.8523 118.337 90.0185 120.965 91.6047C123.616 93.1672 126.966 93.9485 131.015 93.9485C135.063 93.9485 138.673 93.1672 141.846 91.6047C145.018 90.0185 147.598 87.8523 149.587 85.1061C151.599 82.3362 152.89 79.1757 153.458 75.6246L161.341 28.1814ZM241.577 28.1814L229.504 100.909H220.981L190.867 43.8064H190.157L180.64 100.909H171.833L183.907 28.1814H192.43L222.685 85.4257H223.396L232.913 28.1814H241.577Z" fill="#F16B46"/>
<path d="M284.092 118.909L302.203 9.81778H378.908L374.86 33.6814H327.771L324.788 52.4314H367.189L363.141 76.2951H320.74L313.709 118.909H284.092ZM380.663 118.909H348.703L402.822 9.81778H443.305L461.203 118.909H429.243L418.589 39.8604H417.737L380.663 118.909ZM381.941 75.8689H442.027L438.191 98.028H378.106L381.941 75.8689ZM532.884 43.9087C533.204 40.3931 532.352 37.6409 530.327 35.6523C528.303 33.6281 524.894 32.6161 520.1 32.6161C517.046 32.6161 514.489 32.9712 512.43 33.6814C510.405 34.3916 508.825 35.3682 507.689 36.6111C506.588 37.854 505.896 39.2922 505.611 40.9257C505.292 42.2041 505.31 43.376 505.665 44.4414C506.055 45.4712 506.783 46.4122 507.849 47.2645C508.95 48.1168 510.388 48.8803 512.163 49.555C513.974 50.2297 516.123 50.8334 518.609 51.3661L527.131 53.2837C532.955 54.5621 537.838 56.2489 541.78 58.3441C545.757 60.4037 548.882 62.854 551.155 65.6949C553.428 68.5358 554.919 71.7141 555.629 75.2297C556.375 78.7453 556.393 82.5806 555.682 86.7354C554.475 93.9087 551.687 99.9811 547.32 104.953C542.952 109.924 537.252 113.706 530.221 116.299C523.19 118.891 515.057 120.187 505.825 120.187C496.379 120.187 488.353 118.784 481.748 115.979C475.178 113.138 470.42 108.806 467.472 102.982C464.56 97.1225 463.85 89.6473 465.342 80.5564H493.467C493.04 83.8945 493.396 86.6999 494.532 88.9726C495.668 91.2453 497.497 92.9676 500.018 94.1395C502.54 95.3114 505.682 95.8973 509.447 95.8973C512.643 95.8973 515.377 95.5067 517.65 94.7255C519.923 93.9442 521.716 92.8611 523.03 91.4762C524.344 90.0912 525.143 88.511 525.427 86.7354C525.711 85.1019 525.427 83.6459 524.575 82.3675C523.722 81.0891 522.178 79.935 519.94 78.9051C517.703 77.8753 514.631 76.9343 510.725 76.082L500.285 73.7382C491.016 71.6076 484.021 68.0919 479.298 63.1914C474.575 58.2908 472.905 51.5791 474.29 43.0564C475.427 36.0962 478.285 30.0237 482.866 24.8391C487.483 19.6189 493.342 15.5706 500.445 12.6942C507.582 9.78227 515.484 8.3263 524.148 8.3263C532.955 8.3263 540.324 9.80002 546.254 12.7475C552.22 15.6949 556.499 19.832 559.092 25.1587C561.719 30.4854 562.43 36.7354 561.222 43.9087H532.884ZM566.959 33.6814L571.007 9.81778H665.823L661.774 33.6814H628.962L614.899 118.909H585.709L599.772 33.6814H566.959Z" fill="url(#paint0_linear_166_30)"/>
<defs>
<linearGradient id="paint0_linear_166_30" x1="283" y1="64.4087" x2="660.045" y2="64.4087" gradientUnits="userSpaceOnUse">
<stop stop-color="#F16B46"/>
<stop offset="1" stop-color="#EE2B2C"/>
</linearGradient>
</defs>
</svg>
