<svg width="380" height="255" viewBox="0 0 380 255" fill="none" xmlns="http://www.w3.org/2000/svg">
<path d="M56.5543 4.93844H276.554C282.077 4.93844 285.854 9.36047 284.99 14.8153L269.346 113.584C268.482 119.039 263.305 123.461 257.782 123.461H37.7821C32.2593 123.461 28.4825 119.039 29.3465 113.584L44.9899 14.8153C45.8539 9.36048 51.0314 4.93844 56.5543 4.93844Z" stroke="url(#paint0_linear_194_50)" stroke-width="10"/>
<path d="M1.09197 253L19.2028 143.909H95.9073L91.859 167.773H44.771L41.788 186.523H84.1886L80.1403 210.386H37.7397L30.7085 253H1.09197ZM97.6625 253H65.7022L119.822 143.909H160.305L178.202 253H146.242L135.589 173.952H134.736L97.6625 253ZM98.9409 209.96H159.026L155.191 232.119H95.1056L98.9409 209.96ZM246.884 178C247.203 174.484 246.351 171.732 244.327 169.744C242.303 167.719 238.894 166.707 234.1 166.707C231.046 166.707 228.489 167.062 226.429 167.773C224.405 168.483 222.825 169.46 221.688 170.702C220.588 171.945 219.895 173.384 219.611 175.017C219.291 176.295 219.309 177.467 219.664 178.533C220.055 179.562 220.783 180.504 221.848 181.356C222.949 182.208 224.387 182.972 226.163 183.646C227.974 184.321 230.122 184.925 232.608 185.457L241.131 187.375C246.955 188.653 251.838 190.34 255.779 192.435C259.757 194.495 262.882 196.945 265.154 199.786C267.427 202.627 268.919 205.805 269.629 209.321C270.374 212.837 270.392 216.672 269.682 220.827C268.475 228 265.687 234.072 261.319 239.044C256.951 244.016 251.252 247.798 244.22 250.39C237.189 252.982 229.057 254.278 219.824 254.278C210.378 254.278 202.352 252.876 195.747 250.07C189.178 247.229 184.419 242.897 181.472 237.073C178.56 231.214 177.85 223.739 179.341 214.648H207.466C207.04 217.986 207.395 220.791 208.531 223.064C209.668 225.337 211.497 227.059 214.018 228.231C216.539 229.403 219.682 229.989 223.446 229.989C226.642 229.989 229.377 229.598 231.649 228.817C233.922 228.036 235.715 226.952 237.029 225.567C238.343 224.183 239.142 222.602 239.426 220.827C239.71 219.193 239.426 217.737 238.574 216.459C237.722 215.18 236.177 214.026 233.94 212.996C231.703 211.967 228.631 211.026 224.725 210.173L214.284 207.83C205.016 205.699 198.02 202.183 193.297 197.283C188.574 192.382 186.905 185.67 188.29 177.148C189.426 170.187 192.285 164.115 196.866 158.93C201.482 153.71 207.342 149.662 214.444 146.786C221.582 143.874 229.483 142.418 238.148 142.418C246.955 142.418 254.323 143.891 260.254 146.839C266.22 149.786 270.499 153.923 273.091 159.25C275.719 164.577 276.429 170.827 275.222 178H246.884ZM280.959 167.773L285.007 143.909H379.822L375.774 167.773H342.961L328.899 253H299.709L313.771 167.773H280.959Z" fill="url(#paint1_linear_194_50)"/>
<path d="M55.3354 101L67.4092 28.2727H94.682C100.269 28.2727 104.803 29.2434 108.283 31.1847C111.763 33.1259 114.19 35.8485 115.563 39.3523C116.936 42.8324 117.232 46.8925 116.45 51.5327C115.693 56.1728 114.036 60.2093 111.479 63.642C108.946 67.0511 105.596 69.6908 101.429 71.5611C97.2861 73.4313 92.4211 74.3665 86.8339 74.3665H67.4092L69.2558 63.429H86.9405C90.2075 63.429 92.9537 62.9792 95.1791 62.0795C97.4045 61.1562 99.1564 59.8187 100.435 58.0668C101.737 56.2912 102.601 54.1132 103.027 51.5327C103.43 48.9522 103.276 46.7505 102.565 44.9276C101.879 43.081 100.565 41.6842 98.6237 40.7372C96.7061 39.7666 94.1138 39.2812 90.8467 39.2812H78.7729L68.5101 101H55.3354ZM98.3751 68.0455L110.911 101H96.2089L83.993 68.0455H98.3751ZM174.856 28.2727H188.031L180.147 75.7869C179.295 80.9953 177.306 85.5762 174.181 89.5298C171.08 93.4834 167.126 96.5729 162.32 98.7983C157.515 101 152.164 102.101 146.269 102.101C140.327 102.101 135.332 101 131.284 98.7983C127.235 96.5729 124.311 93.4834 122.512 89.5298C120.737 85.5762 120.275 80.9953 121.127 75.7869L129.011 28.2727H142.186L134.48 74.6861C133.982 77.7164 134.207 80.4152 135.154 82.7827C136.125 85.1264 137.711 86.973 139.913 88.3224C142.138 89.6719 144.92 90.3466 148.258 90.3466C151.596 90.3466 154.603 89.6719 157.278 88.3224C159.953 86.973 162.143 85.1264 163.847 82.7827C165.552 80.4152 166.653 77.7164 167.15 74.6861L174.856 28.2727ZM258.288 28.2727L246.214 101H234.496L208.466 51.4616H207.898L199.623 101H186.449L198.523 28.2727H210.312L236.307 77.8466H236.981L245.184 28.2727H258.288Z" fill="url(#paint2_linear_194_50)"/>
<defs>
<linearGradient id="paint0_linear_194_50" x1="22" y1="64" x2="373.19" y2="8.37695" gradientUnits="userSpaceOnUse">
<stop stop-color="#F16B46"/>
<stop offset="1" stop-color="#EF2C2D"/>
</linearGradient>
<linearGradient id="paint1_linear_194_50" x1="0" y1="198.5" x2="374.045" y2="198.5" gradientUnits="userSpaceOnUse">
<stop stop-color="#F16B46"/>
<stop offset="1" stop-color="#EE2B2C"/>
</linearGradient>
<linearGradient id="paint2_linear_194_50" x1="52" y1="65" x2="382.5" y2="65" gradientUnits="userSpaceOnUse">
<stop stop-color="#F16B46"/>
<stop offset="1" stop-color="#EE2B2C"/>
</linearGradient>
</defs>
</svg>
