<?xml version="1.0" standalone="no"?>
<!DOCTYPE svg PUBLIC "-//W3C//DTD SVG 20010904//EN"
 "http://www.w3.org/TR/2001/REC-SVG-20010904/DTD/svg10.dtd">
<svg version="1.0" xmlns="http://www.w3.org/2000/svg"
 width="760.000000pt" height="760.000000pt" viewBox="0 0 760.000000 760.000000"
 preserveAspectRatio="xMidYMid meet">
<metadata>
Created by potrace 1.14, written by Peter Selinger 2001-2017
</metadata>
<g transform="translate(0.000000,760.000000) scale(0.100000,-0.100000)"
fill="#000000" stroke="none">
<path d="M1031 6334 c-88 -31 -162 -96 -204 -180 -14 -27 -47 -193 -62 -309
-2 -22 -7 -51 -9 -65 -3 -14 -8 -41 -10 -60 -3 -19 -8 -46 -10 -60 -3 -14 -7
-43 -11 -65 -3 -22 -10 -65 -15 -95 -6 -30 -12 -77 -15 -105 -3 -27 -8 -57
-10 -65 -2 -8 -7 -33 -10 -55 -3 -23 -8 -52 -11 -65 -5 -27 -10 -62 -19 -130
-3 -25 -7 -52 -10 -60 -2 -8 -6 -33 -9 -55 -4 -22 -8 -51 -11 -65 -2 -14 -7
-43 -10 -65 -3 -22 -10 -65 -15 -95 -5 -30 -12 -75 -15 -100 -3 -25 -8 -52
-10 -60 -3 -8 -7 -33 -10 -55 -2 -22 -7 -51 -9 -65 -3 -14 -8 -43 -11 -65 -3
-23 -7 -51 -10 -64 -2 -12 -9 -55 -14 -94 -6 -40 -15 -96 -19 -125 -23 -139
29 -245 148 -304 l55 -28 2258 0 c2187 0 2259 1 2307 19 133 51 218 165 235
317 2 21 6 48 9 59 2 11 7 40 10 65 3 25 8 54 10 65 2 11 7 42 10 68 4 27 9
59 12 70 2 12 7 38 9 57 8 53 27 173 31 195 2 10 6 37 9 60 3 22 8 54 12 70 3
17 7 44 9 60 1 17 5 39 7 50 3 11 10 56 16 100 7 44 16 103 21 130 5 28 12 70
15 95 3 25 8 52 10 60 2 8 7 35 10 60 3 25 10 70 15 100 5 30 12 71 15 90 3
19 8 47 10 61 3 14 7 42 10 62 9 66 15 102 19 123 2 12 7 45 11 75 4 30 9 57
11 60 2 3 6 41 10 85 3 43 7 81 7 84 0 3 -5 18 -11 33 -7 16 -12 33 -12 39 0
13 -39 68 -65 91 -11 9 -38 27 -60 40 l-40 22 -2270 2 c-2029 2 -2275 0 -2314
-13z m4554 -208 c18 -28 20 -46 11 -96 -8 -41 -7 -36 -41 -250 -3 -19 -7 -44
-9 -55 -2 -11 -7 -42 -11 -70 -4 -27 -9 -59 -11 -70 -2 -11 -7 -40 -10 -65 -3
-25 -8 -54 -10 -65 -3 -11 -7 -40 -10 -64 -2 -24 -6 -47 -9 -50 -2 -4 -6 -31
-10 -61 -3 -30 -8 -62 -10 -70 -2 -8 -7 -35 -10 -60 -7 -51 -13 -92 -21 -135
-4 -16 -7 -41 -9 -55 -1 -14 -5 -38 -8 -55 -4 -16 -9 -48 -12 -70 -7 -51 -14
-94 -20 -125 -3 -14 -7 -45 -10 -70 -3 -25 -8 -52 -10 -60 -3 -8 -7 -31 -9
-50 -3 -19 -9 -64 -15 -100 -5 -36 -13 -85 -16 -110 -3 -25 -8 -53 -11 -62 -3
-9 -7 -32 -9 -50 -12 -112 -22 -147 -49 -176 -49 -55 102 -52 -2299 -52 -2117
0 -2226 1 -2247 18 -28 23 -29 62 -5 182 3 14 7 43 9 65 3 22 10 65 15 95 15
76 23 132 23 152 -1 10 4 20 9 23 5 4 7 10 4 15 -3 5 1 48 9 97 8 48 17 104
20 123 3 19 8 46 10 60 3 14 7 43 11 65 6 44 12 85 20 130 3 17 8 46 11 65 3
19 9 60 14 90 5 30 12 73 15 95 2 22 7 51 9 65 9 48 25 145 31 185 5 38 21
142 30 195 2 14 14 86 25 160 12 74 24 148 26 165 7 41 40 92 72 109 23 12
355 14 2264 15 l2238 1 15 -24z"/>
<path d="M1351 5775 c-6 -8 -31 -146 -46 -250 -2 -16 -8 -55 -14 -85 -9 -49
-18 -104 -26 -165 -2 -11 -10 -58 -19 -105 -9 -47 -18 -103 -21 -125 -2 -22
-7 -51 -10 -65 -3 -14 -7 -41 -10 -60 -3 -19 -7 -46 -10 -60 -6 -27 -14 -79
-20 -120 -1 -14 -6 -41 -10 -60 -3 -19 -8 -46 -10 -60 -2 -14 -6 -40 -9 -57
-17 -95 -22 -124 -32 -195 l-5 -38 131 0 c71 0 130 3 131 8 0 4 2 16 5 27 2
11 6 34 8 50 7 48 16 98 23 130 3 17 7 44 9 60 4 36 13 91 20 125 3 14 8 43
10 64 9 72 8 71 148 70 117 -1 140 -5 142 -22 0 -4 4 -14 7 -22 4 -8 23 -60
42 -115 20 -55 38 -107 42 -115 3 -8 7 -17 8 -20 5 -13 18 -47 25 -65 5 -11
20 -53 34 -94 14 -41 27 -76 29 -77 1 -2 65 -4 142 -5 98 -1 140 2 143 11 4
10 -38 126 -74 207 -8 17 -14 36 -14 42 0 6 -7 27 -16 48 -27 62 -32 74 -68
173 -20 51 -34 95 -33 96 1 0 30 16 63 33 80 42 162 125 202 203 26 52 42 92
43 105 1 2 6 24 13 50 7 27 12 82 11 124 -4 180 -99 299 -275 345 -54 14 -120
17 -383 18 -209 1 -321 -2 -326 -9z m559 -219 c57 -11 116 -51 135 -92 41 -88
12 -228 -62 -301 -67 -65 -129 -80 -326 -81 l-159 0 6 41 c3 23 7 51 9 62 6
26 20 114 22 140 2 11 6 36 10 55 3 19 8 51 10 70 2 19 4 35 5 35 1 0 3 9 5
19 13 67 0 62 162 60 81 -1 164 -5 183 -8z"/>
<path d="M2575 5760 c-3 -14 -7 -43 -10 -65 -2 -22 -31 -197 -64 -390 -32
-192 -62 -368 -65 -390 -3 -22 -9 -52 -12 -67 -20 -98 -5 -228 37 -310 46 -89
163 -178 274 -207 194 -51 446 -12 600 93 44 30 133 112 160 149 47 63 97 182
109 262 10 64 56 347 62 380 3 17 7 44 10 60 2 17 5 39 8 50 2 11 7 40 11 65
4 25 9 54 11 65 2 10 6 35 9 55 3 20 7 45 9 55 2 11 7 40 11 65 4 25 9 52 10
60 1 8 6 33 9 55 l7 40 -125 0 c-70 0 -129 -4 -135 -10 -5 -5 -12 -29 -15 -53
-3 -24 -13 -84 -21 -135 -9 -51 -18 -105 -21 -122 -13 -76 -65 -394 -70 -425
-3 -19 -7 -42 -9 -50 -2 -8 -7 -35 -10 -60 -18 -133 -55 -220 -123 -285 -127
-121 -369 -135 -476 -28 -58 58 -83 156 -64 251 5 26 11 63 14 82 3 19 7 46 9
60 3 14 14 84 26 155 12 72 23 139 25 150 3 11 7 36 10 55 20 129 24 157 28
175 20 106 37 228 31 233 -4 4 -62 7 -131 7 l-123 0 -6 -25z"/>
<path d="M3974 5778 c-3 -5 -7 -21 -10 -36 -3 -15 -9 -52 -15 -82 -10 -54 -15
-86 -23 -145 -2 -16 -12 -73 -21 -125 -9 -52 -18 -106 -20 -119 -6 -35 -18
-113 -21 -136 -1 -11 -3 -20 -4 -20 -2 0 -9 -34 -14 -75 -2 -19 -16 -102 -29
-185 -14 -82 -28 -166 -31 -185 -3 -19 -8 -46 -11 -60 -3 -14 -8 -45 -10 -70
-3 -25 -8 -53 -11 -63 -3 -11 -7 -29 -9 -40 -1 -12 -5 -41 -9 -64 l-8 -43 134
0 134 0 2 28 c1 15 7 52 13 82 5 30 12 69 14 85 8 54 32 197 70 415 3 19 7 46
10 60 2 14 9 57 15 95 7 39 14 84 16 100 10 78 20 120 29 119 9 -2 39 -58 184
-338 34 -65 75 -142 90 -170 16 -28 61 -114 102 -191 40 -77 89 -171 110 -210
l37 -70 118 0 118 0 8 35 c4 19 10 58 13 85 4 28 8 52 10 55 2 3 6 30 10 60 4
30 9 64 10 75 3 20 31 182 39 220 2 11 7 40 10 65 3 25 8 55 10 66 2 12 7 39
11 60 6 42 12 76 19 111 3 11 8 43 12 70 3 26 8 57 10 68 5 24 24 139 30 178
2 15 6 42 9 60 3 17 8 46 10 62 2 17 6 41 9 55 3 13 8 42 12 65 3 22 6 44 7
49 1 6 -55 10 -130 11 -113 0 -133 -2 -134 -15 0 -8 -2 -24 -4 -35 -2 -11 -7
-40 -10 -64 -3 -25 -8 -47 -9 -50 -2 -3 -6 -28 -10 -56 -3 -27 -8 -60 -10 -71
-5 -26 -16 -90 -21 -124 -2 -14 -17 -106 -34 -205 -34 -203 -39 -235 -47 -288
-3 -20 -9 -49 -13 -64 l-7 -27 -21 35 c-11 19 -53 97 -93 174 -40 77 -92 176
-115 220 -72 136 -149 284 -220 420 -37 72 -71 134 -76 140 -11 11 -228 14
-235 3z"/>
<path d="M4748 3505 c-2 -1 -41 -5 -88 -9 -101 -7 -135 -12 -214 -32 -298 -76
-518 -241 -621 -468 -29 -64 -54 -146 -61 -201 -1 -11 -3 -20 -4 -20 -5 0 -2
-136 4 -170 17 -100 91 -206 191 -275 60 -41 178 -96 247 -114 29 -8 60 -17
68 -20 8 -3 32 -8 54 -11 21 -3 43 -8 48 -11 5 -3 19 -7 31 -9 100 -13 258
-62 316 -97 112 -70 85 -218 -52 -278 -66 -30 -80 -32 -182 -36 -221 -7 -334
80 -339 260 l-1 41 -278 1 -277 1 -7 -26 c-9 -35 -9 -237 0 -283 18 -96 73
-201 138 -267 42 -41 125 -106 138 -106 3 -1 17 -7 30 -14 28 -16 161 -62 161
-56 0 3 12 0 27 -6 49 -18 179 -32 308 -33 99 0 264 11 288 19 7 2 23 7 37 10
80 16 112 25 177 49 281 103 454 305 505 588 39 213 -25 392 -182 510 -88 66
-185 107 -360 154 -93 25 -105 28 -165 38 -16 3 -45 10 -63 15 -18 5 -36 10
-40 10 -27 1 -124 47 -150 71 -37 33 -47 65 -38 123 16 104 136 167 308 161
146 -5 219 -58 234 -174 l7 -50 279 0 c238 0 279 2 284 15 9 22 9 173 1 220
-11 59 -16 74 -49 142 -58 122 -181 225 -328 276 -112 38 -140 44 -265 53 -44
3 -88 7 -97 8 -9 2 -18 3 -20 1z"/>
<path d="M408 3472 c-24 -3 -27 -8 -33 -55 -4 -29 -9 -61 -12 -72 -2 -11 -6
-33 -8 -50 -3 -16 -7 -41 -10 -55 -3 -14 -8 -43 -11 -65 -6 -52 -18 -121 -29
-175 -3 -14 -8 -45 -11 -70 -3 -25 -8 -54 -10 -65 -5 -27 -25 -143 -30 -180
-3 -16 -7 -41 -11 -55 -3 -14 -6 -28 -5 -32 1 -4 -3 -33 -9 -65 -6 -32 -13
-69 -14 -83 -3 -20 -55 -335 -91 -545 -3 -16 -7 -41 -9 -55 -2 -14 -11 -68
-20 -120 -16 -94 -21 -126 -31 -185 -10 -64 -31 -186 -39 -228 l-5 -27 297 2
297 3 7 35 c4 19 10 53 12 75 5 36 50 308 63 380 3 17 8 44 10 60 2 17 6 41 8
55 3 13 8 40 11 60 3 20 8 47 10 60 3 14 8 45 11 70 3 25 8 47 10 49 2 2 190
4 418 4 227 0 418 2 424 6 5 3 12 26 15 51 3 25 11 70 17 100 6 30 12 69 15
85 8 62 36 219 41 227 3 4 -185 7 -418 8 -232 0 -424 2 -426 5 -5 4 8 92 32
230 3 17 9 53 12 80 4 28 10 52 15 55 4 3 213 5 466 4 433 -1 492 3 477 27 -2
5 0 26 6 48 5 21 13 59 15 84 3 25 8 56 10 68 3 13 7 35 9 49 3 14 8 41 10 60
3 19 10 57 15 85 5 27 8 51 6 53 -4 5 -1471 8 -1507 4z"/>
<path d="M2434 3472 c-39 -3 -43 -6 -63 -50 -12 -26 -26 -54 -31 -62 -16 -27
-550 -1110 -550 -1117 0 -3 -7 -14 -16 -24 -8 -9 -17 -23 -18 -31 -1 -7 -100
-210 -219 -450 -119 -240 -217 -439 -217 -442 0 -3 144 -6 320 -6 179 0 320 4
320 9 0 8 96 214 162 348 l30 61 359 0 c359 -1 359 -1 360 -22 0 -11 2 -28 4
-36 1 -8 6 -35 9 -60 14 -101 18 -126 22 -153 2 -15 7 -50 9 -79 3 -28 8 -55
11 -59 3 -5 147 -9 320 -9 l316 0 -6 48 c-4 26 -11 70 -16 97 -5 28 -11 64
-14 80 -2 17 -9 62 -16 100 -14 84 -19 119 -25 165 -2 19 -4 35 -5 35 -1 0 -4
14 -6 30 -3 17 -9 53 -14 80 -6 28 -12 66 -15 85 -2 19 -7 46 -10 60 -2 14 -7
43 -10 65 -5 37 -7 52 -20 123 -3 15 -7 43 -10 62 -3 19 -7 46 -10 60 -3 14
-8 45 -11 70 -3 25 -7 52 -9 60 -4 14 -10 48 -20 115 -2 17 -6 41 -9 55 -3 13
-8 42 -11 65 -4 22 -16 96 -27 165 -11 69 -22 134 -23 145 -2 11 -8 47 -13 80
-6 33 -14 78 -17 99 -3 21 -8 48 -10 60 -3 12 -7 37 -10 56 -15 115 -17 120
-39 120 -134 3 -721 4 -752 2z m277 -609 c0 -5 2 -17 5 -28 2 -11 6 -40 9 -65
2 -25 7 -55 9 -67 3 -12 7 -49 11 -82 3 -33 8 -70 10 -83 5 -22 7 -39 19 -133
14 -103 28 -203 32 -227 l4 -28 -225 0 c-124 0 -225 2 -225 5 0 3 26 60 59
128 32 67 69 145 81 172 13 28 48 104 79 170 32 66 70 148 86 183 25 55 43 77
46 55z"/>
<path d="M5717 3472 c-9 -2 -18 -8 -18 -13 -1 -5 -2 -12 -3 -16 -6 -27 -16
-84 -21 -118 -4 -22 -13 -76 -20 -120 -8 -44 -17 -98 -21 -120 -3 -22 -7 -51
-9 -65 l-5 -26 313 1 c171 0 319 -1 328 -3 14 -3 15 -10 8 -40 -4 -21 -10 -57
-14 -82 -3 -25 -8 -52 -10 -60 -2 -8 -7 -33 -10 -55 -3 -23 -7 -50 -9 -62 -3
-11 -7 -38 -11 -59 -8 -52 -14 -88 -25 -154 -5 -30 -12 -73 -15 -95 -4 -22 -8
-51 -11 -65 -2 -14 -7 -41 -10 -60 -2 -19 -7 -46 -10 -60 -2 -14 -6 -36 -9
-50 -3 -13 -7 -42 -10 -65 -3 -22 -8 -51 -10 -65 -13 -70 -17 -97 -20 -120 -2
-14 -6 -41 -10 -60 -3 -19 -8 -46 -10 -60 -5 -40 -15 -101 -25 -150 -5 -25
-12 -67 -15 -95 -3 -27 -10 -70 -15 -95 -5 -25 -12 -62 -15 -82 -2 -21 -6 -43
-7 -50 -2 -10 58 -14 288 -16 l292 -2 7 47 c5 27 9 55 11 63 1 8 6 35 10 60 4
25 8 50 10 55 1 6 5 28 8 50 4 22 13 78 21 125 7 47 17 103 20 125 9 64 15 98
22 130 3 17 7 44 9 60 1 17 5 39 7 50 6 25 19 103 22 130 2 11 10 63 20 115 9
52 18 109 21 125 4 33 12 79 17 110 8 40 17 91 22 130 6 40 22 139 31 185 2
14 7 45 11 70 11 81 -16 75 337 75 174 -1 321 2 325 5 5 3 12 23 15 45 4 23 8
50 10 60 2 11 7 40 11 65 4 25 9 54 12 65 2 11 6 34 8 50 3 17 11 65 18 108
l13 77 -40 0 c-259 3 -1827 4 -1839 2z"/>
</g>
</svg>
