<svg width="400" height="400" viewBox="0 0 400 400" fill="none" xmlns="http://www.w3.org/2000/svg">
<path d="M55.9899 87.8153C56.8539 82.3605 62.0314 77.9384 67.5543 77.9384H287.554C293.077 77.9384 296.854 82.3605 295.99 87.8153L280.346 186.584C279.482 192.039 274.305 196.461 268.782 196.461H48.7821C43.2593 196.461 39.4825 192.039 40.3465 186.584L55.9899 87.8153Z" stroke="url(#paint0_linear_195_2)" stroke-width="10"/>
<path d="M12.092 326L30.2028 216.909H106.907L102.859 240.773H55.771L52.788 259.523H95.1886L91.1403 283.386H48.7397L41.7085 326H12.092ZM108.662 326H76.7022L130.822 216.909H171.305L189.202 326H157.242L146.589 246.952H145.736L108.662 326ZM109.941 282.96H170.026L166.191 305.119H106.106L109.941 282.96ZM257.884 251C258.203 247.484 257.351 244.732 255.327 242.744C253.303 240.719 249.894 239.707 245.1 239.707C242.046 239.707 239.489 240.062 237.429 240.773C235.405 241.483 233.825 242.46 232.688 243.702C231.588 244.945 230.895 246.384 230.611 248.017C230.291 249.295 230.309 250.467 230.664 251.533C231.055 252.562 231.783 253.504 232.848 254.356C233.949 255.208 235.387 255.972 237.163 256.646C238.974 257.321 241.122 257.925 243.608 258.457L252.131 260.375C257.955 261.653 262.838 263.34 266.779 265.435C270.757 267.495 273.882 269.945 276.154 272.786C278.427 275.627 279.919 278.805 280.629 282.321C281.374 285.837 281.392 289.672 280.682 293.827C279.475 301 276.687 307.072 272.319 312.044C267.951 317.016 262.252 320.798 255.22 323.39C248.189 325.982 240.057 327.278 230.824 327.278C221.378 327.278 213.352 325.876 206.747 323.07C200.178 320.229 195.419 315.897 192.472 310.073C189.56 304.214 188.85 296.739 190.341 287.648H218.466C218.04 290.986 218.395 293.791 219.531 296.064C220.668 298.337 222.497 300.059 225.018 301.231C227.539 302.403 230.682 302.989 234.446 302.989C237.642 302.989 240.377 302.598 242.649 301.817C244.922 301.036 246.715 299.952 248.029 298.567C249.343 297.183 250.142 295.602 250.426 293.827C250.71 292.193 250.426 290.737 249.574 289.459C248.722 288.18 247.177 287.026 244.94 285.996C242.703 284.967 239.631 284.026 235.725 283.173L225.284 280.83C216.016 278.699 209.02 275.183 204.297 270.283C199.574 265.382 197.905 258.67 199.29 250.148C200.426 243.187 203.285 237.115 207.866 231.93C212.482 226.71 218.342 222.662 225.444 219.786C232.582 216.874 240.483 215.418 249.148 215.418C257.955 215.418 265.323 216.891 271.254 219.839C277.22 222.786 281.499 226.923 284.091 232.25C286.719 237.577 287.429 243.827 286.222 251H257.884ZM291.959 240.773L296.007 216.909H390.822L386.774 240.773H353.961L339.899 326H310.709L324.771 240.773H291.959Z" fill="url(#paint1_linear_195_2)"/>
<path d="M66.3354 174L78.4092 101.273H105.682C111.269 101.273 115.803 102.243 119.283 104.185C122.763 106.126 125.19 108.848 126.563 112.352C127.936 115.832 128.232 119.893 127.45 124.533C126.693 129.173 125.036 133.209 122.479 136.642C119.946 140.051 116.596 142.691 112.429 144.561C108.286 146.431 103.421 147.366 97.8339 147.366H78.4092L80.2558 136.429H97.9405C101.208 136.429 103.954 135.979 106.179 135.08C108.404 134.156 110.156 132.819 111.435 131.067C112.737 129.291 113.601 127.113 114.027 124.533C114.43 121.952 114.276 119.75 113.565 117.928C112.879 116.081 111.565 114.684 109.624 113.737C107.706 112.767 105.114 112.281 101.847 112.281H89.7729L79.5101 174H66.3354ZM109.375 141.045L121.911 174H107.209L94.993 141.045H109.375ZM185.856 101.273H199.031L191.147 148.787C190.295 153.995 188.306 158.576 185.181 162.53C182.08 166.483 178.126 169.573 173.32 171.798C168.515 174 163.164 175.101 157.269 175.101C151.327 175.101 146.332 174 142.284 171.798C138.235 169.573 135.311 166.483 133.512 162.53C131.737 158.576 131.275 153.995 132.127 148.787L140.011 101.273H153.186L145.48 147.686C144.982 150.716 145.207 153.415 146.154 155.783C147.125 158.126 148.711 159.973 150.913 161.322C153.138 162.672 155.92 163.347 159.258 163.347C162.596 163.347 165.603 162.672 168.278 161.322C170.953 159.973 173.143 158.126 174.847 155.783C176.552 153.415 177.653 150.716 178.15 147.686L185.856 101.273ZM269.288 101.273L257.214 174H245.496L219.466 124.462H218.898L210.623 174H197.449L209.523 101.273H221.312L247.307 150.847H247.981L256.184 101.273H269.288Z" fill="url(#paint2_linear_195_2)"/>
<defs>
<linearGradient id="paint0_linear_195_2" x1="33" y1="137" x2="384.19" y2="81.3769" gradientUnits="userSpaceOnUse">
<stop stop-color="#F16B46"/>
<stop offset="1" stop-color="#EF2C2D"/>
</linearGradient>
<linearGradient id="paint1_linear_195_2" x1="11" y1="271.5" x2="385.045" y2="271.5" gradientUnits="userSpaceOnUse">
<stop stop-color="#F16B46"/>
<stop offset="1" stop-color="#EE2B2C"/>
</linearGradient>
<linearGradient id="paint2_linear_195_2" x1="63" y1="138" x2="393.5" y2="138" gradientUnits="userSpaceOnUse">
<stop stop-color="#F16B46"/>
<stop offset="1" stop-color="#EE2B2C"/>
</linearGradient>
</defs>
</svg>
