<?xml version="1.0" standalone="no"?>
<!DOCTYPE svg PUBLIC "-//W3C//DTD SVG 20010904//EN"
 "http://www.w3.org/TR/2001/REC-SVG-20010904/DTD/svg10.dtd">
<svg version="1.0" xmlns="http://www.w3.org/2000/svg"
 width="760.000000pt" height="760.000000pt" viewBox="0 0 760.000000 760.000000"
 preserveAspectRatio="xMidYMid meet">
<metadata>
Created by potrace 1.14, written by Peter Selinger 2001-2017
</metadata>
<g transform="translate(0.000000,760.000000) scale(0.100000,-0.100000)"
fill="#000000" stroke="none">
<path d="M1018 6335 c-89 -33 -170 -112 -203 -199 -17 -44 -335 -2036 -335
-2096 0 -93 63 -190 152 -234 l52 -26 2268 0 c2263 0 2267 0 2322 21 76 28
148 96 185 172 27 56 44 153 187 1057 93 583 158 1022 157 1060 -1 108 -54
193 -148 236 l-50 24 -2275 -1 c-1903 0 -2281 -3 -2312 -14z m4536 -195 c46
-17 48 -33 15 -236 -16 -104 -88 -557 -159 -1007 -71 -450 -134 -826 -140
-836 -5 -10 -23 -31 -41 -45 l-31 -26 -2238 0 c-2022 0 -2240 2 -2254 16 -9 8
-16 24 -16 34 0 18 305 1951 316 2002 8 37 41 78 78 94 26 11 413 13 2238 14
1374 0 2216 -4 2232 -10z"/>
<path d="M1345 5778 c-10 -28 -242 -1443 -238 -1450 5 -10 245 -10 259 0 6 4
30 125 54 270 l43 263 131 -3 131 -3 95 -255 c52 -141 99 -261 103 -268 10
-15 283 -17 292 -3 3 6 -42 134 -100 286 -58 152 -105 280 -105 284 0 4 24 18
53 33 111 55 204 166 249 296 18 55 23 88 23 182 0 106 -2 120 -28 172 -52
105 -157 176 -297 199 -89 14 -660 12 -665 -3z m620 -248 c71 -35 98 -90 91
-181 -6 -83 -36 -149 -89 -194 -63 -54 -115 -65 -304 -65 l-163 0 5 23 c3 12
18 105 35 207 17 102 33 198 36 213 l6 29 167 -4 c153 -3 170 -5 216 -28z"/>
<path d="M2575 5778 c-14 -43 -165 -1003 -165 -1048 1 -202 134 -358 350 -411
77 -19 268 -16 355 5 214 52 392 204 461 394 21 59 184 989 184 1052 0 19 -6
20 -133 20 l-134 0 -77 -467 c-43 -258 -82 -487 -88 -511 -17 -67 -77 -152
-139 -194 -74 -51 -153 -71 -249 -66 -153 9 -250 102 -250 241 0 30 134 862
156 970 l6 27 -137 0 c-100 0 -137 -3 -140 -12z"/>
<path d="M3965 5778 c-8 -25 -235 -1408 -235 -1433 l0 -25 129 0 c72 0 132 4
135 9 3 4 42 226 86 492 44 266 82 485 84 487 2 2 39 -63 82 -145 43 -81 160
-303 260 -493 l181 -345 113 -3 c62 -1 117 1 122 6 7 7 248 1428 248 1458 0 2
-60 4 -134 4 -131 0 -134 -1 -139 -22 -3 -13 -41 -235 -83 -495 -43 -260 -82
-469 -87 -464 -4 4 -122 226 -262 492 l-253 484 -121 3 c-92 2 -122 -1 -126
-10z"/>
<path d="M4615 3499 c-423 -45 -754 -290 -840 -623 -69 -272 16 -472 254 -594
98 -51 165 -72 396 -126 105 -24 215 -55 245 -69 90 -40 126 -93 110 -162 -16
-72 -72 -123 -163 -150 -67 -20 -228 -20 -296 1 -105 31 -171 124 -171 241 l0
43 -284 0 -283 0 -7 -37 c-11 -68 -6 -237 9 -301 70 -298 359 -462 815 -462
346 0 614 92 795 274 126 127 197 285 211 471 20 263 -129 459 -426 559 -41
13 -145 41 -230 60 -185 42 -262 67 -306 101 -90 69 -55 201 68 256 44 19 70
23 158 24 176 0 246 -44 259 -163 l6 -57 279 -3 c176 -1 283 1 290 8 15 15 20
174 6 243 -64 333 -416 516 -895 466z"/>
<path d="M376 3453 c-9 -42 -356 -2145 -356 -2154 0 -5 135 -9 300 -9 l299 0
6 33 c3 17 32 196 65 397 33 201 63 377 66 393 l6 27 424 0 c233 0 424 3 424
6 0 9 70 426 75 452 l5 22 -425 0 -425 0 4 23 c3 12 15 83 26 157 11 74 23
147 26 163 l6 27 469 0 469 0 5 23 c10 47 75 433 75 450 0 16 -47 17 -769 17
l-769 0 -6 -27z"/>
<path d="M2392 3468 c-10 -13 -702 -1404 -948 -1906 l-133 -272 325 2 325 3
94 200 94 200 358 0 358 0 27 -195 c15 -107 27 -198 27 -202 1 -5 148 -8 327
-8 l326 0 -6 28 c-3 15 -83 495 -176 1067 -94 572 -173 1052 -176 1068 l-6 27
-403 0 c-310 0 -405 -3 -413 -12z m363 -952 c25 -186 45 -342 45 -347 0 -5
-97 -9 -215 -9 -118 0 -215 2 -215 3 0 2 59 130 131 283 72 153 147 313 166
354 20 41 37 71 39 65 2 -5 24 -162 49 -349z"/>
<path d="M5695 3468 c-7 -20 -75 -434 -75 -457 0 -21 2 -21 326 -21 l326 0 -6
-27 c-24 -113 -275 -1667 -270 -1674 9 -15 570 -12 581 4 6 6 72 391 149 855
l138 842 327 0 327 0 6 28 c11 55 76 437 76 449 0 19 -1899 19 -1905 1z"/>
</g>
</svg>
